PathFileType	4	(X/Y/Z)	/Users/itak/Documents/Research/Walk-IL/dataset/trc/00292_00010.trc
DataRate	CameraRate	NumFrames	NumMarkers	Units	OrigDataRate	OrigDataStartFrame	OrigNumFrames
100.000000	100.000000	4	54	mm	100.000000	326	653
Frame#	Time	RPSI			LPSI			L3			STRN			T10			C7			CLAV			RBAK			LBAK			LSHO			LUPA			LAEL			LAOL			LWTS			LWPS			LFRA			LHPS			LHTS			RSHO			RUPA			RAEL			RAOL			RWTS			RWPS			RFRA			RIFD			RHPS			RBHD			LFHD			RFHD			LBHD			LHIP			RHIP			RASI			LASI			LKNE			LTHI			LANK			LTIP			LTOE			LMT1			LMT5			LHEE			RKNE			RTHI			RANK			RTIP			RTOE			RMT1			RMT5			RHEE			RHTS			LIFD			*53			
		X1	Y1	Z1	X2	Y2	Z2	X3	Y3	Z3	X4	Y4	Z4	X5	Y5	Z5	X6	Y6	Z6	X7	Y7	Z7	X8	Y8	Z8	X9	Y9	Z9	X10	Y10	Z10	X11	Y11	Z11	X12	Y12	Z12	X13	Y13	Z13	X14	Y14	Z14	X15	Y15	Z15	X16	Y16	Z16	X17	Y17	Z17	X18	Y18	Z18	X19	Y19	Z19	X20	Y20	Z20	X21	Y21	Z21	X22	Y22	Z22	X23	Y23	Z23	X24	Y24	Z24	X25	Y25	Z25	X26	Y26	Z26	X27	Y27	Z27	X28	Y28	Z28	X29	Y29	Z29	X30	Y30	Z30	X31	Y31	Z31	X32	Y32	Z32	X33	Y33	Z33	X34	Y34	Z34	X35	Y35	Z35	X36	Y36	Z36	X37	Y37	Z37	X38	Y38	Z38	X39	Y39	Z39	X40	Y40	Z40	X41	Y41	Z41	X42	Y42	Z42	X43	Y43	Z43	X44	Y44	Z44	X45	Y45	Z45	X46	Y46	Z46	X47	Y47	Z47	X48	Y48	Z48	X49	Y49	Z49	X50	Y50	Z50	X51	Y51	Z51	X52	Y52	Z52	X53	Y53	Z53	X54	Y54	Z54	

327	3.26	-454.7228698730469	953.311767578125	-499.2494201660156	-476.2343139648438	960.67578125	-672.0902099609375	-452.0512390136719	1025.433349609375	-603.0699462890625	-197.5263519287109	1195.941284179688	-602.5569458007812	-463.8528442382812	1142.649780273438	-612.8009643554688	-410.4381713867188	1386.027465820312	-622.7705078125	-256.2711486816406	1298.805419921875	-603.8209228515625	-472.4941711425781	1247.009033203125	-558.3618774414062	-418.1009521484375	1353.487915039062	-727.3079223632812	-324.7105712890625	1358.913330078125	-768.349609375	-345.7940673828125	1249.31982421875	-852.2379760742188	-322.7166748046875	1069.758056640625	-905.6014404296875	-370.0481872558594	1020.356201171875	-852.1013793945312	-136.3342437744141	959.475341796875	-945.568603515625	-173.0992889404297	928.1863403320312	-999.52197265625	-269.1722717285156	1001.5048828125	-948.246826171875	-109.591552734375	872.9725341796875	-1024.283935546875	-63.11020278930664	913.0394897460938	-1001.712036132812	-364.8882141113281	1359.5927734375	-459.1692504882812	-391.2912902832031	1307.737915039062	-396.4112243652344	-497.5708312988281	1067.915283203125	-363.4277038574219	-488.4151611328125	1054.303466796875	-456.4244995117188	-498.2710571289062	817.7081298828125	-361.7049255371094	-557.8889770507812	851.2108764648438	-311.0213928222656	-509.4407348632812	1003.654418945312	-338.1958923339844	-592.6292114257812	658.964599609375	-354.7366943359375	-595.72998046875	744.5353393554688	-300.9676818847656	-408.1033935546875	1539.200317382812	-593.8197021484375	-200.1143951416016	1582.525146484375	-591.3875732421875	-254.6115417480469	1579.313110351562	-515.6005249023438	-320.6684875488281	1534.501953125	-711.4015502929688	-427.4558410644531	912.393310546875	-779.3855590820312	-338.8976440429688	900.208984375	-415.2122497558594	-235.8199768066406	905.9378051757812	-506.5586853027344	-283.5224914550781	908.0166625976562	-754.9703979492188	-467.5576171875	452.1224975585938	-768.0239868164062	-440.2384033203125	592.8618774414062	-783.9510498046875	-786.7615356445312	126.9445953369141	-671.09912109375	-635.1749267578125	288.1165466308594	-731.0540771484375	-608.0896606445312	35.91205215454102	-670.5812377929688	-651.340087890625	47.10050582885742	-608.2467651367188	-697.860107421875	52.68663024902344	-712.2998046875	-802.8142700195312	154.8990936279297	-603.5973510742188	-167.4800262451172	467.9405517578125	-544.6429443359375	-233.8316802978516	709.6702880859375	-454.0157165527344	-156.1903076171875	37.85367202758789	-648.3295288085938	-133.0490264892578	351.2315979003906	-582.6683349609375	35.4584846496582	53.62406158447266	-711.6383056640625	-23.40746688842773	41.34644317626953	-747.1024780273438	-49.32472229003906	34.06195449829102	-633.3580932617188	-208.3262481689453	30.8707103729248	-695.3665771484375	-539.0133666992188	710.4232177734375	-327.2633972167969	-11.31101226806641	843.0281982421875	-1010.959350585938	nan	nan	nan	
328	3.27	-445.5235595703125	954.3311767578125	-501.4555358886719	-464.6620178222656	961.40185546875	-674.6065673828125	-441.9791564941406	1026.694458007812	-605.3093872070312	-187.6195373535156	1198.214111328125	-600.95166015625	-454.0352783203125	1143.927368164062	-614.9738159179688	-401.1244506835938	1387.223754882812	-624.0232543945312	-247.0658264160156	1300.724853515625	-603.0346069335938	-463.2814636230469	1248.150268554688	-560.4334716796875	-407.3594360351562	1354.969482421875	-728.6771850585938	-313.4016723632812	1360.653198242188	-768.4342651367188	-333.6153259277344	1251.085815429688	-852.47265625	-311.810302734375	1070.695434570312	-904.30224609375	-360.8529663085938	1022.537231445312	-851.167724609375	-126.2904815673828	956.555419921875	-939.220458984375	-162.1790924072266	926.1130981445312	-994.0208129882812	-258.43603515625	1001.399658203125	-945.3388061523438	-99.11321258544922	869.2698364257812	-1016.888854980469	-52.49529647827148	908.1832275390625	-992.9616088867188	-357.524169921875	1360.930419921875	-459.943603515625	-384.3825378417969	1309.012817382812	-397.5475769042969	-489.8588256835938	1068.581787109375	-366.8079833984375	-479.8388977050781	1055.623046875	-459.7630310058594	-490.0162658691406	817.881591796875	-367.6080627441406	-549.4341430664062	851.11328125	-316.1199951171875	-501.8717956542969	1004.060913085938	-342.1436767578125	-583.3510131835938	659.35009765625	-362.93310546875	-586.8696899414062	743.8740844726562	-307.616455078125	-399.4579467773438	1540.282836914062	-594.283203125	-191.5645446777344	1583.92529296875	-590.0194091796875	-246.7612457275391	1580.397216796875	-514.6047973632812	-311.0314025878906	1536.036865234375	-711.1754760742188	-414.021240234375	913.15625	-781.0464477539062	-331.3802185058594	901.6929321289062	-415.6395874023438	-226.4252166748047	907.9909057617188	-505.1778564453125	-270.7905883789062	909.4649658203125	-754.0884399414062	-449.4540405273438	451.5168762207031	-774.46142578125	-423.723388671875	592.8191528320312	-788.2666625976562	-778.1130981445312	135.7946624755859	-677.875732421875	-621.7876586914062	292.2802734375	-737.8740234375	-607.5760498046875	35.44114303588867	-671.0785522460938	-649.4010009765625	50.26781845092773	-610.010498046875	-694.32080078125	54.37912368774414	-715.3030395507812	-792.9358520507812	166.8254699707031	-611.4344482421875	-159.3742065429688	468.3805541992188	-545.0595092773438	-225.4129028320312	710.2737426757812	-453.5892944335938	-155.3362121582031	38.39644622802734	-648.6311645507812	-126.0695571899414	351.1435852050781	-583.8370361328125	36.52909088134766	50.59407043457031	-713.2456665039062	-22.8824634552002	39.52399444580078	-748.24560546875	-48.52158737182617	33.68088150024414	-634.2697143554688	-207.7845916748047	31.55435371398926	-695.32275390625	-529.8272705078125	710.4916381835938	-334.155517578125	-3.006179809570312	837.2901000976562	-1000.874389648438	nan	nan	nan	
329	3.28	-436.3394470214844	955.2647094726562	-503.3131408691406	-453.3407897949219	962.1124267578125	-676.7070922851562	-432.08935546875	1027.953002929688	-607.2073364257812	-177.8681030273438	1200.455078125	-599.250244140625	-444.2192687988281	1145.125610351562	-616.916748046875	-391.8965148925781	1388.35546875	-625.19580078125	-237.9734954833984	1302.65869140625	-602.1708984375	-454.0973205566406	1249.190673828125	-562.3914794921875	-396.7691650390625	1356.350219726562	-729.9561767578125	-302.2615356445312	1362.338256835938	-768.4323120117188	-321.5036926269531	1252.832763671875	-852.6592407226562	-300.8892211914062	1071.609130859375	-903.0111694335938	-351.7207336425781	1024.741088867188	-850.3355102539062	-116.6171264648438	953.2271728515625	-932.7700805664062	-151.562744140625	923.7724609375	-988.4432983398438	-247.8268280029297	1001.1650390625	-942.4208984375	-89.17043304443359	865.1148071289062	-1009.38671875	-42.36384201049805	902.7781372070312	-984.0073852539062	-350.2256164550781	1362.277465820312	-460.6705932617188	-377.5360717773438	1310.388549804688	-398.6367797851562	-482.2655029296875	1069.37744140625	-370.029296875	-471.3320617675781	1057.026245117188	-462.9240417480469	-480.6828308105469	818.3590698242188	-372.7712097167969	-540.5126953125	850.874755859375	-321.0494689941406	-494.2795104980469	1004.509704589844	-345.9330139160156	-572.0729370117188	659.3646850585938	-370.6262512207031	-576.8509521484375	742.88330078125	-314.0547180175781	-390.8453674316406	1541.401123046875	-594.7401733398438	-183.0527801513672	1585.228637695312	-588.6209106445312	-238.9444732666016	1581.410034179688	-513.597900390625	-301.4136657714844	1537.5654296875	-710.9306640625	-401.0051574707031	914.0582275390625	-782.3939208984375	-323.791259765625	902.8977661132812	-415.9160461425781	-217.1640319824219	909.7849731445312	-503.8275451660156	-258.4064025878906	911.0628662109375	-753.1742553710938	-430.7109680175781	450.9663391113281	-781.0972290039062	-406.9083862304688	592.8278198242188	-792.6401977539062	-768.0175170898438	144.810791015625	-685.6796264648438	-607.060546875	296.2542724609375	-745.2403564453125	-606.6867065429688	34.75269317626953	-671.6031494140625	-647.0112915039062	54.02769088745117	-612.1947021484375	-690.0814208984375	56.45486831665039	-718.7583618164062	-781.6270751953125	178.81787109375	-620.4196166992188	-151.8725738525391	468.4933471679688	-545.4085693359375	-217.2305908203125	710.4965209960938	-453.1488952636719	-154.6531677246094	38.87531661987305	-648.9376831054688	-119.6174240112305	350.8323669433594	-584.876953125	37.42707443237305	48.03425216674805	-714.5178833007812	-22.42287254333496	38.01607131958008	-749.1399536132812	-47.91722869873047	33.45313262939453	-634.9830932617188	-207.3331146240234	32.08486938476562	-695.3373413085938	-519.191650390625	710.5736083984375	-340.558349609375	4.546157360076904	830.8900756835938	-990.5845336914062	nan	nan	nan	
330	3.29	-427.2414855957031	956.1511840820312	-504.8293151855469	-442.3489379882812	962.7545166015625	-678.4126586914062	-422.3584289550781	1029.151489257812	-608.745361328125	-168.3037414550781	1202.574829101562	-597.51708984375	-434.4531860351562	1146.208374023438	-618.6005859375	-382.7646484375	1389.398193359375	-626.2785034179688	-228.9745635986328	1304.539916992188	-601.2584838867188	-444.980224609375	1250.093994140625	-564.2225952148438	-386.3651428222656	1357.592163085938	-731.130126953125	-291.338134765625	1363.916381835938	-768.3714599609375	-309.55517578125	1254.475463867188	-852.7852172851562	-289.9461975097656	1072.430786132812	-901.7432861328125	-342.614501953125	1026.8642578125	-849.6328735351562	-107.3024978637695	949.5043334960938	-926.2589111328125	-141.2244110107422	921.148193359375	-982.8465576171875	-237.3048553466797	1000.750549316406	-939.5147094726562	-79.73527526855469	860.5347900390625	-1001.829467773438	-32.75172805786133	896.8472900390625	-974.8955688476562	-342.9793701171875	1363.576171875	-461.3404541015625	-370.7286682128906	1311.776000976562	-399.6646118164062	-474.7948608398438	1070.204467773438	-373.0764465332031	-462.904296875	1058.421020507812	-465.8970336914062	-470.20263671875	819.1806030273438	-376.94287109375	-531.1776123046875	850.4417114257812	-325.777099609375	-486.6605529785156	1004.919555664062	-349.5420837402344	-558.8712768554688	658.9677734375	-377.7107849121094	-565.7609252929688	741.5404052734375	-320.2373657226562	-382.2790222167969	1542.536010742188	-595.1941528320312	-174.5919799804688	1586.43701171875	-587.20458984375	-231.1579895019531	1582.360473632812	-512.605712890625	-291.8255310058594	1539.069091796875	-710.6734008789062	-388.4961547851562	915.0006103515625	-783.4423828125	-316.0428161621094	903.8841552734375	-416.0409851074219	-208.06640625	911.2864990234375	-502.552734375	-246.4378356933594	912.7186279296875	-752.2669677734375	-411.4350891113281	450.5048828125	-787.7490234375	-389.8683776855469	592.8617553710938	-796.9532470703125	-756.428955078125	153.8858337402344	-694.51611328125	-590.9564819335938	299.927734375	-753.0463256835938	-605.244384765625	33.85571670532227	-672.1921997070312	-644.0446166992188	58.41739273071289	-614.886474609375	-684.9573974609375	58.98706817626953	-722.7020874023438	-768.9252319335938	190.7126770019531	-630.5352172851562	-144.9962921142578	468.3419494628906	-545.6803588867188	-209.3158264160156	710.4337768554688	-452.7325744628906	-154.1528472900391	39.28742980957031	-649.2261962890625	-113.7364501953125	350.3383178710938	-585.7409057617188	38.16167449951172	45.95988845825195	-715.4779663085938	-22.03300666809082	36.8078498840332	-749.8145751953125	-47.49283599853516	33.33121490478516	-635.5208740234375	-206.9679718017578	32.47276306152344	-695.4100341796875	-507.1943359375	710.63037109375	-346.3817138671875	11.40792274475098	823.8861083984375	-980.1295166015625	nan	nan	nan	
